<?xml version="1.0" encoding="UTF-8" standalone="no"?>
<!-- Created with Inkscape (http://www.inkscape.org/) -->

<svg
   width="192"
   height="192"
   viewBox="0 0 50.799999 50.8"
   version="1.1"
   id="svg1"
   inkscape:version="1.3.2 (091e20e, 2023-11-25, custom)"
   sodipodi:docname="assembler.svg"
   xmlns:inkscape="http://www.inkscape.org/namespaces/inkscape"
   xmlns:sodipodi="http://sodipodi.sourceforge.net/DTD/sodipodi-0.dtd"
   xmlns:xlink="http://www.w3.org/1999/xlink"
   xmlns="http://www.w3.org/2000/svg"
   xmlns:svg="http://www.w3.org/2000/svg">
  <sodipodi:namedview
     id="namedview1"
     pagecolor="#505050"
     bordercolor="#ffffff"
     borderopacity="1"
     inkscape:showpageshadow="0"
     inkscape:pageopacity="0"
     inkscape:pagecheckerboard="1"
     inkscape:deskcolor="#505050"
     inkscape:document-units="px"
     inkscape:zoom="2.8044052"
     inkscape:cx="50.991206"
     inkscape:cy="112.14499"
     inkscape:window-width="1920"
     inkscape:window-height="1001"
     inkscape:window-x="2391"
     inkscape:window-y="-9"
     inkscape:window-maximized="1"
     inkscape:current-layer="layer1" />
  <defs
     id="defs1">
    <linearGradient
       id="linearGradient540"
       inkscape:collect="always">
      <stop
         style="stop-color:#000000;stop-opacity:1;"
         offset="0"
         id="stop540" />
      <stop
         style="stop-color:#383838;stop-opacity:1;"
         offset="1"
         id="stop541" />
    </linearGradient>
    <linearGradient
       id="linearGradient538"
       inkscape:collect="always">
      <stop
         style="stop-color:#7e7e7e;stop-opacity:1;"
         offset="0"
         id="stop538" />
      <stop
         style="stop-color:#c4d0d4;stop-opacity:1;"
         offset="1"
         id="stop539" />
    </linearGradient>
    <inkscape:path-effect
       effect="fillet_chamfer"
       id="path-effect1"
       nodesatellites_param="F,0,0,1,0,2,0,1 @ F,0,0,1,0,2,0,1 @ F,0,0,1,0,0,0,1 @ F,0,0,1,0,0,0,1"
       is_visible="true"
       lpeversion="1"
       radius="0"
       unit="px"
       method="auto"
       mode="F"
       chamfer_steps="1"
       flexible="false"
       use_knot_distance="true"
       apply_no_radius="true"
       apply_with_radius="true"
       only_selected="false"
       hide_knots="false" />
    <linearGradient
       inkscape:collect="always"
       xlink:href="#linearGradient538"
       id="linearGradient539"
       x1="8.3343746"
       y1="25.4"
       x2="42.465625"
       y2="25.4"
       gradientUnits="userSpaceOnUse"
       gradientTransform="matrix(0.5453029,-0.32002571,0.32002571,0.54530289,8.6096666,14.630466)" />
    <linearGradient
       inkscape:collect="always"
       xlink:href="#linearGradient540"
       id="linearGradient541"
       x1="8.3343746"
       y1="25.4"
       x2="42.465625"
       y2="25.4"
       gradientUnits="userSpaceOnUse"
       gradientTransform="matrix(0.5453029,-0.32002571,0.32002571,0.54530289,8.6096666,14.630466)" />
    <linearGradient
       inkscape:collect="always"
       xlink:href="#linearGradient538"
       id="linearGradient542"
       gradientUnits="userSpaceOnUse"
       gradientTransform="matrix(0.44841244,0,0,0.44841243,5.5192224,19.057812)"
       x1="8.3343746"
       y1="25.4"
       x2="42.465625"
       y2="25.4" />
    <linearGradient
       inkscape:collect="always"
       xlink:href="#linearGradient540"
       id="linearGradient543"
       gradientUnits="userSpaceOnUse"
       gradientTransform="matrix(0.44841244,0,0,0.44841243,5.5192224,19.057812)"
       x1="8.3343746"
       y1="25.4"
       x2="42.465625"
       y2="25.4" />
    <linearGradient
       inkscape:collect="always"
       xlink:href="#linearGradient538"
       id="linearGradient544"
       gradientUnits="userSpaceOnUse"
       gradientTransform="matrix(0.29731667,-0.01986494,0.01986494,0.29731667,16.30579,32.74043)"
       x1="8.3343746"
       y1="25.4"
       x2="42.465625"
       y2="25.4" />
    <linearGradient
       inkscape:collect="always"
       xlink:href="#linearGradient540"
       id="linearGradient545"
       gradientUnits="userSpaceOnUse"
       gradientTransform="matrix(0.29731667,-0.01986494,0.01986494,0.29731667,16.30579,32.74043)"
       x1="8.3343746"
       y1="25.4"
       x2="42.465625"
       y2="25.4" />
  </defs>
  <g
     inkscape:label="Layer 1"
     inkscape:groupmode="layer"
     id="layer1">
    <rect
       style="fill:#543b2a;fill-opacity:1;stroke:none;stroke-width:0.264583;stroke-opacity:1"
       id="rect541"
       width="50.799999"
       height="50.799999"
       x="0"
       y="0" />
    <rect
       style="fill:#35281c;fill-opacity:1;stroke:none;stroke-width:0.264583;stroke-opacity:1"
       id="rect542"
       width="41.931511"
       height="41.931511"
       x="4.4342437"
       y="4.4342437" />
    <g
       id="g546"
       transform="translate(0.09352035,-1.8384578)">
      <path
         id="path536"
         style="display:inline;fill:url(#linearGradient539);fill-opacity:1;stroke:url(#linearGradient541);stroke-width:0.264584"
         d="m 25.019716,11.206857 -0.06981,1.904152 0.425658,1.241723 0.19696,0.226509 -0.827751,0.839255 -0.229445,-0.193429 -1.247474,-0.407844 -1.902795,0.09647 -0.172065,0.303287 0.891917,1.683732 0.98921,0.862492 0.283499,0.09768 -0.296527,1.140849 -0.295588,-0.05308 -1.284489,0.270805 -1.599439,1.0349 0.0026,0.348523 1.613921,1.012237 1.287986,0.252229 0.294637,-0.05699 0.313148,1.136512 -0.28196,0.101831 -0.977283,0.876246 -0.867564,1.696467 0.176293,0.300392 1.904152,0.06981 1.241722,-0.425659 0.226395,-0.19651 0.839371,0.827304 -0.193428,0.229444 -0.407845,1.247473 0.09675,1.902631 0.303169,0.172513 1.68345,-0.891752 0.862776,-0.989376 0.0978,-0.283945 1.14045,0.29714 -0.0528,0.295423 0.270637,1.284205 1.034901,1.59944 0.348689,-0.0023 1.012236,-1.613921 0.252064,-1.288269 -0.05683,-0.294355 1.136347,-0.313429 0.101712,0.282409 0.876527,0.977117 1.696303,0.867283 0.300391,-0.176293 0.0697,-1.903706 -0.425377,-1.241887 -0.19696,-0.22651 0.827751,-0.839255 0.229279,0.193146 1.247639,0.408128 1.902631,-0.09675 0.172064,-0.303287 -0.891751,-1.68345 -0.98921,-0.862492 -0.283665,-0.09796 0.296693,-1.140566 0.295588,0.05308 1.284488,-0.270803 1.599439,-1.0349 -0.0028,-0.348806 -1.613922,-1.012237 -1.287986,-0.252228 -0.294637,0.05699 -0.312982,-1.136229 0.28196,-0.101832 0.977118,-0.876526 0.867564,-1.696469 -0.176293,-0.300391 -1.904153,-0.06981 -1.241556,0.42594 -0.226395,0.19651 -0.839536,-0.827586 0.193427,-0.229444 0.407846,-1.247473 -0.09675,-1.902632 -0.303006,-0.172229 -1.68345,0.891751 -0.862775,0.989375 -0.0978,0.283947 -1.140616,-0.297423 0.05296,-0.29514 -0.270637,-1.284206 -1.035066,-1.5997217 -0.348689,0.00233 -1.012072,1.6142037 -0.252229,1.287985 0.05699,0.294638 -1.136347,0.313429 -0.101711,-0.282408 -0.876809,-0.976953 -1.696187,-0.867729 z m 4.038601,4.593093 a 4.8057333,4.8056634 59.592309 0 1 5.087018,1.324338 l -2.525712,1.482283 a 2.0281807,2.0281807 0 0 0 -1.079024,-0.28091 z m -1.694231,1.001841 1.481455,2.524303 a 2.0281807,2.0281807 0 0 0 -0.279164,1.072316 l -2.524585,1.48162 a 4.8057333,4.8056634 59.592309 0 1 1.322293,-5.078241 z m 2.590869,2.470321 a 1.2526999,1.2526999 0 0 1 1.714453,0.446336 1.2526999,1.2526999 0 0 1 -0.446336,1.714453 1.2526999,1.2526999 0 0 1 -1.714453,-0.446335 1.2526999,1.2526999 0 0 1 0.446336,-1.714454 z m -2.916909,4.30547 2.524585,-1.481621 a 2.0281807,2.0281807 0 0 0 1.072317,0.279164 l 1.481454,2.524302 a 4.8057333,4.8056634 59.592309 0 1 -5.078356,-1.321845 z m 5.573586,-3.271009 2.524302,-1.481455 a 4.8057333,4.8056634 59.592309 0 1 -1.322011,5.078073 l -1.481455,-2.524302 a 2.0281807,2.0281807 0 0 0 0.279164,-1.072316 z" />
      <path
         id="path542"
         style="display:inline;fill:url(#linearGradient542);fill-opacity:1;stroke:url(#linearGradient543);stroke-width:0.264584"
         d="m 16.78539,22.85437 -0.726221,1.139616 -0.185379,0.912296 0.03916,0.209246 -0.807556,0.216199 -0.07091,-0.200673 -0.616616,-0.697256 -1.198474,-0.624032 -0.214112,0.123741 -0.05886,1.350021 0.295447,0.882635 0.138339,0.161511 -0.590894,0.591358 -0.161744,-0.13857 -0.882867,-0.295447 -1.34979,0.05886 -0.123508,0.214112 0.6238,1.198475 0.697256,0.616615 0.200673,0.07091 -0.21643,0.807556 -0.209015,-0.03893 -0.912296,0.185147 -1.1396162,0.726221 v 0.247018 l 1.1396162,0.726222 0.912296,0.185378 0.209015,-0.03893 0.21643,0.807325 -0.200673,0.07091 -0.697256,0.616616 -0.6238,1.198474 0.123508,0.214345 1.34979,0.05886 0.882867,-0.295448 0.161744,-0.13857 0.590894,0.591126 -0.138339,0.161744 -0.295447,0.882634 0.05886,1.34979 0.214112,0.12374 1.198474,-0.623799 0.616616,-0.697489 0.07091,-0.20044 0.807556,0.216198 -0.03916,0.209247 0.185379,0.912295 0.726221,1.139385 h 0.247018 l 0.72599,-1.139385 0.18561,-0.912295 -0.03916,-0.209247 0.807556,-0.216198 0.07091,0.20044 0.616616,0.697489 1.198474,0.623799 0.214112,-0.12374 0.05886,-1.34979 -0.295447,-0.882634 -0.138339,-0.161744 0.590894,-0.591126 0.161744,0.13857 0.882866,0.295448 1.34979,-0.05886 0.123509,-0.214345 -0.6238,-1.198474 -0.697257,-0.616616 -0.200672,-0.07091 0.21643,-0.807325 0.209015,0.03893 0.912295,-0.185378 1.139617,-0.726222 v -0.247018 l -1.139617,-0.726221 -0.912295,-0.185147 -0.209015,0.03893 -0.21643,-0.807556 0.200672,-0.07091 0.697257,-0.616615 0.6238,-1.198475 -0.123509,-0.214112 -1.34979,-0.05886 -0.882866,0.295447 -0.161744,0.13857 -0.590894,-0.591358 0.138339,-0.161511 0.295447,-0.882635 -0.05886,-1.350021 -0.214112,-0.123741 -1.198474,0.624032 -0.616616,0.697256 -0.07091,0.200673 -0.807556,-0.216199 0.03916,-0.209246 -0.18561,-0.912296 -0.72599,-1.139616 z m 0.82146,4.259079 a 3.4081992,3.4082487 0 0 1 2.636088,2.636087 H 18.165999 A 1.4383953,1.4383953 0 0 0 17.60685,29.190387 Z m -1.395902,0.0046 v 2.075779 a 1.4383953,1.4383953 0 0 0 -0.555673,0.555673 h -2.076012 a 3.4081992,3.4082487 0 0 1 2.631685,-2.631454 z m 0.697951,2.441 a 0.88842068,0.88842068 0 0 1 0.888428,0.888429 0.88842068,0.88842068 0 0 1 -0.888428,0.888427 0.88842068,0.88842068 0 0 1 -0.888429,-0.888427 0.88842068,0.88842068 0 0 1 0.888429,-0.888429 z m -3.329636,1.58638 h 2.076012 a 1.4383953,1.4383953 0 0 0 0.555673,0.555673 v 2.075779 a 3.4081992,3.4082487 0 0 1 -2.631685,-2.631452 z m 4.58326,0 h 2.075779 a 3.4081992,3.4082487 0 0 1 -2.631452,2.631452 v -2.075779 a 1.4383953,1.4383953 0 0 0 0.555673,-0.555673 z" />
      <path
         id="path543"
         style="display:inline;fill:url(#linearGradient544);fill-opacity:1;stroke:url(#linearGradient545);stroke-width:0.264584"
         d="m 23.943931,34.758613 -0.43103,0.787786 -0.0825,0.613104 0.03523,0.137004 -0.525866,0.179124 -0.0559,-0.129913 -0.439732,-0.434995 -0.822284,-0.360666 -0.136484,0.09153 0.02078,0.89773 0.234996,0.572136 0.09888,0.10096 -0.365591,0.418273 -0.113381,-0.08471 -0.598468,-0.156783 -0.892361,0.09882 -0.0724,0.147437 0.4667,0.767005 0.489627,0.377954 0.136196,0.03813 -0.107728,0.545032 -0.14031,-0.01655 -0.596689,0.163176 -0.723443,0.532002 0.01094,0.163783 0.787787,0.431031 0.613104,0.0825 0.136861,-0.03507 0.179268,0.525704 -0.129914,0.0559 -0.434994,0.439731 -0.360514,0.822274 0.09138,0.136649 0.897576,-0.02077 0.572291,-0.235006 0.101104,-0.09904 0.417976,0.365766 -0.08456,0.113371 -0.156793,0.598313 0.09882,0.892361 0.147447,0.07256 0.767005,-0.466699 0.377943,-0.489781 0.03814,-0.136042 0.545022,0.107573 -0.01669,0.140474 0.16333,0.596679 0.53199,0.723289 0.163784,-0.01094 0.430888,-0.787623 0.08265,-0.613114 -0.03523,-0.137005 0.525867,-0.179124 0.05589,0.12976 0.439743,0.435148 0.822274,0.360513 0.136484,-0.09153 -0.02077,-0.897576 -0.234995,-0.572136 -0.09889,-0.101114 0.3656,-0.418119 0.113382,0.08471 0.598467,0.156783 0.892361,-0.09882 0.07239,-0.147592 -0.466699,-0.767004 -0.489628,-0.377954 -0.136195,-0.03813 0.107737,-0.54488 0.14031,0.01655 0.596679,-0.163329 0.723443,-0.532002 -0.01094,-0.163783 -0.787787,-0.431031 -0.613093,-0.08235 -0.136862,0.03507 -0.179277,-0.525856 0.129913,-0.05591 0.434995,-0.439731 0.360513,-0.822275 -0.09137,-0.136495 -0.897576,0.02077 -0.572289,0.235006 -0.101106,0.09904 -0.417985,-0.365919 0.08457,-0.113217 0.156793,-0.598313 -0.09883,-0.892515 -0.147447,-0.07256 -0.766995,0.466853 -0.377954,0.489627 -0.03813,0.136196 -0.545022,-0.107574 0.01669,-0.140473 -0.163483,-0.596669 -0.531848,-0.723453 z m 0.733343,2.78756 a 2.2648534,2.2648206 86.177516 0 1 1.864619,1.631059 l -1.377099,0.09201 a 0.95584414,0.95584414 0 0 0 -0.39551,-0.34597 z m -0.925336,0.06493 0.09196,1.376331 a 0.95584414,0.95584414 0 0 0 -0.343819,0.393051 l -1.376485,0.09197 a 2.2648534,2.2648206 86.177516 0 1 1.628345,-1.861351 z m 0.570909,1.587568 a 0.59037436,0.59037436 0 0 1 0.628424,0.549709 0.59037436,0.59037436 0 0 1 -0.549708,0.628423 0.59037436,0.59037436 0 0 1 -0.628424,-0.549707 0.59037436,0.59037436 0 0 1 0.549708,-0.628425 z m -2.137414,1.199343 1.376485,-0.09197 a 0.95584414,0.95584414 0 0 0 0.393052,0.343819 l 0.09196,1.376331 a 2.2648534,2.2648206 86.177516 0 1 -1.861496,-1.628181 z m 3.038899,-0.203041 1.37633,-0.09196 a 2.2648534,2.2648206 86.177516 0 1 -1.628191,1.86134 l -0.09196,-1.37633 a 0.95584414,0.95584414 0 0 0 0.343819,-0.393052 z" />
    </g>
  </g>
</svg>
