<?xml version="1.0" encoding="UTF-8" standalone="no"?>
<!-- Created with Inkscape (http://www.inkscape.org/) -->

<svg
   width="100"
   height="84.597"
   viewBox="0 0 26.458332 22.382957"
   version="1.1"
   id="svg1"
   inkscape:version="1.3.2 (091e20e, 2023-11-25, custom)"
   sodipodi:docname="quest_book.svg"
   xmlns:inkscape="http://www.inkscape.org/namespaces/inkscape"
   xmlns:sodipodi="http://sodipodi.sourceforge.net/DTD/sodipodi-0.dtd"
   xmlns:xlink="http://www.w3.org/1999/xlink"
   xmlns="http://www.w3.org/2000/svg"
   xmlns:svg="http://www.w3.org/2000/svg">
  <sodipodi:namedview
     id="namedview1"
     pagecolor="#505050"
     bordercolor="#ffffff"
     borderopacity="1"
     inkscape:showpageshadow="0"
     inkscape:pageopacity="0"
     inkscape:pagecheckerboard="1"
     inkscape:deskcolor="#505050"
     inkscape:document-units="px"
     inkscape:zoom="5.6568543"
     inkscape:cx="50.734911"
     inkscape:cy="52.767843"
     inkscape:window-width="1920"
     inkscape:window-height="1001"
     inkscape:window-x="2391"
     inkscape:window-y="-9"
     inkscape:window-maximized="1"
     inkscape:current-layer="layer1"
     inkscape:clip-to-page="false" />
  <defs
     id="defs1">
    <linearGradient
       id="linearGradient116"
       inkscape:collect="always">
      <stop
         style="stop-color:#666666;stop-opacity:1;"
         offset="0.90253675"
         id="stop115" />
      <stop
         style="stop-color:#b2b2b2;stop-opacity:1;"
         offset="1"
         id="stop116" />
    </linearGradient>
    <linearGradient
       id="linearGradient113"
       inkscape:collect="always">
      <stop
         style="stop-color:#b20000;stop-opacity:1;"
         offset="0"
         id="stop113" />
      <stop
         style="stop-color:#660000;stop-opacity:1;"
         offset="1"
         id="stop114" />
    </linearGradient>
    <linearGradient
       id="linearGradient112"
       inkscape:collect="always">
      <stop
         style="stop-color:#666666;stop-opacity:1;"
         offset="0.90253675"
         id="stop111" />
      <stop
         style="stop-color:#b2b2b2;stop-opacity:1;"
         offset="1"
         id="stop112" />
    </linearGradient>
    <inkscape:path-effect
       effect="fillet_chamfer"
       id="path-effect47"
       is_visible="true"
       lpeversion="1"
       nodesatellites_param="F,0,0,1,0,0,0,1 @ F,0,0,1,0,0,0,1 @ F,0,0,1,0,0,0,1 @ F,0,0,1,0,0,0,1 @ F,0,0,1,0,0,0,1 @ F,0,0,1,0,0,0,1 @ F,0,0,1,0,0,0,1 @ F,0,0,1,0,0,0,1"
       radius="0"
       unit="px"
       method="auto"
       mode="F"
       chamfer_steps="1"
       flexible="false"
       use_knot_distance="true"
       apply_no_radius="true"
       apply_with_radius="true"
       only_selected="false"
       hide_knots="false" />
    <inkscape:path-effect
       effect="fillet_chamfer"
       id="path-effect45"
       is_visible="true"
       lpeversion="1"
       nodesatellites_param="F,0,0,1,0,0,0,1 @ F,0,0,1,0,0,0,1 @ F,0,0,1,0,0,0,1 @ F,0,0,1,0,0,0,1 @ F,0,0,1,0,0,0,1 @ F,0,0,1,0,0,0,1 @ F,0,0,1,0,0,0,1 @ F,0,0,1,0,0,0,1"
       radius="0"
       unit="px"
       method="auto"
       mode="F"
       chamfer_steps="1"
       flexible="false"
       use_knot_distance="true"
       apply_no_radius="true"
       apply_with_radius="true"
       only_selected="false"
       hide_knots="false" />
    <inkscape:path-effect
       effect="fillet_chamfer"
       id="path-effect43"
       is_visible="true"
       lpeversion="1"
       nodesatellites_param="F,0,0,1,0,0,0,1 @ F,0,0,1,0,0,0,1 @ F,0,0,1,0,0,0,1 @ F,0,0,1,0,0,0,1 @ F,0,0,1,0,0,0,1 @ F,0,0,1,0,0,0,1 @ F,0,0,1,0,0,0,1 @ F,0,0,1,0,0,0,1"
       radius="0"
       unit="px"
       method="auto"
       mode="F"
       chamfer_steps="1"
       flexible="false"
       use_knot_distance="true"
       apply_no_radius="true"
       apply_with_radius="true"
       only_selected="false"
       hide_knots="false" />
    <inkscape:path-effect
       effect="fillet_chamfer"
       id="path-effect41"
       is_visible="true"
       lpeversion="1"
       nodesatellites_param="F,0,0,1,0,0,0,1 @ F,0,0,1,0,0,0,1 @ F,0,0,1,0,0,0,1 @ F,0,0,1,0,0,0,1 @ F,0,0,1,0,0,0,1 @ F,0,0,1,0,0,0,1 @ F,0,0,1,0,0,0,1 @ F,0,0,1,0,0,0,1"
       radius="0"
       unit="px"
       method="auto"
       mode="F"
       chamfer_steps="1"
       flexible="false"
       use_knot_distance="true"
       apply_no_radius="true"
       apply_with_radius="true"
       only_selected="false"
       hide_knots="false" />
    <inkscape:path-effect
       effect="fillet_chamfer"
       id="path-effect39"
       is_visible="true"
       lpeversion="1"
       nodesatellites_param="F,0,0,1,0,0,0,1 @ F,0,0,1,0,0,0,1 @ F,0,0,1,0,0,0,1 @ F,0,0,1,0,0,0,1 @ F,0,0,1,0,0,0,1 @ F,0,0,1,0,0,0,1 @ F,0,0,1,0,0,0,1 @ F,0,0,1,0,0,0,1"
       radius="0"
       unit="px"
       method="auto"
       mode="F"
       chamfer_steps="1"
       flexible="false"
       use_knot_distance="true"
       apply_no_radius="true"
       apply_with_radius="true"
       only_selected="false"
       hide_knots="false" />
    <inkscape:path-effect
       effect="fillet_chamfer"
       id="path-effect37"
       is_visible="true"
       lpeversion="1"
       nodesatellites_param="F,0,0,1,0,0,0,1 @ F,0,0,1,0,0,0,1 @ F,0,0,1,0,0,0,1 @ F,0,0,1,0,0,0,1 @ F,0,0,1,0,0,0,1 @ F,0,0,1,0,0,0,1 @ F,0,0,1,0,0,0,1 @ F,0,0,1,0,0,0,1"
       radius="0"
       unit="px"
       method="auto"
       mode="F"
       chamfer_steps="1"
       flexible="false"
       use_knot_distance="true"
       apply_no_radius="true"
       apply_with_radius="true"
       only_selected="false"
       hide_knots="false" />
    <inkscape:path-effect
       effect="fillet_chamfer"
       id="path-effect35"
       is_visible="true"
       lpeversion="1"
       nodesatellites_param="F,0,0,1,0,0,0,1 @ F,0,0,1,0,0,0,1 @ F,0,0,1,0,0,0,1 @ F,0,0,1,0,0,0,1 @ F,0,0,1,0,0,0,1 @ F,0,0,1,0,0,0,1 @ F,0,0,1,0,0,0,1 @ F,0,0,1,0,0,0,1"
       radius="0"
       unit="px"
       method="auto"
       mode="F"
       chamfer_steps="1"
       flexible="false"
       use_knot_distance="true"
       apply_no_radius="true"
       apply_with_radius="true"
       only_selected="false"
       hide_knots="false" />
    <inkscape:path-effect
       effect="fillet_chamfer"
       id="path-effect33"
       is_visible="true"
       lpeversion="1"
       nodesatellites_param="F,0,0,1,0,0,0,1 @ F,0,0,1,0,0,0,1 @ F,0,0,1,0,0,0,1 @ F,0,0,1,0,0,0,1 @ F,0,0,1,0,0,0,1 @ F,0,0,1,0,0,0,1 @ F,0,0,1,0,0,0,1 @ F,0,0,1,0,0,0,1"
       radius="0"
       unit="px"
       method="auto"
       mode="F"
       chamfer_steps="1"
       flexible="false"
       use_knot_distance="true"
       apply_no_radius="true"
       apply_with_radius="true"
       only_selected="false"
       hide_knots="false" />
    <inkscape:path-effect
       effect="fillet_chamfer"
       id="path-effect31"
       is_visible="true"
       lpeversion="1"
       nodesatellites_param="F,0,0,1,0,0,0,1 @ F,0,0,1,0,0,0,1 @ F,0,0,1,0,0,0,1 @ F,0,0,1,0,0,0,1 @ F,0,0,1,0,0,0,1 @ F,0,0,1,0,0,0,1 @ F,0,0,1,0,0,0,1 @ F,0,0,1,0,0,0,1"
       radius="0"
       unit="px"
       method="auto"
       mode="F"
       chamfer_steps="1"
       flexible="false"
       use_knot_distance="true"
       apply_no_radius="true"
       apply_with_radius="true"
       only_selected="false"
       hide_knots="false" />
    <inkscape:path-effect
       effect="fillet_chamfer"
       id="path-effect29"
       is_visible="true"
       lpeversion="1"
       nodesatellites_param="F,0,0,1,0,0,0,1 @ F,0,0,1,0,0,0,1 @ F,0,0,1,0,0,0,1 @ F,0,0,1,0,0,0,1 @ F,0,0,1,0,0,0,1 @ F,0,0,1,0,0,0,1 @ F,0,0,1,0,0,0,1 @ F,0,0,1,0,0,0,1"
       radius="0"
       unit="px"
       method="auto"
       mode="F"
       chamfer_steps="1"
       flexible="false"
       use_knot_distance="true"
       apply_no_radius="true"
       apply_with_radius="true"
       only_selected="false"
       hide_knots="false" />
    <inkscape:path-effect
       effect="fillet_chamfer"
       id="path-effect27"
       is_visible="true"
       lpeversion="1"
       nodesatellites_param="F,0,0,1,0,0,0,1 @ F,0,0,1,0,0,0,1 @ F,0,0,1,0,0,0,1 @ F,0,0,1,0,0,0,1 @ F,0,0,1,0,0,0,1 @ F,0,0,1,0,0,0,1 @ F,0,0,1,0,0,0,1 @ F,0,0,1,0,0,0,1"
       radius="0"
       unit="px"
       method="auto"
       mode="F"
       chamfer_steps="1"
       flexible="false"
       use_knot_distance="true"
       apply_no_radius="true"
       apply_with_radius="true"
       only_selected="false"
       hide_knots="false" />
    <inkscape:path-effect
       effect="fillet_chamfer"
       id="path-effect25"
       is_visible="true"
       lpeversion="1"
       nodesatellites_param="F,0,0,1,0,0,0,1 @ F,0,0,1,0,0,0,1 @ F,0,0,1,0,0,0,1 @ F,0,0,1,0,0,0,1 @ F,0,0,1,0,0,0,1 @ F,0,0,1,0,0,0,1 @ F,0,0,1,0,0,0,1 @ F,0,0,1,0,0,0,1"
       radius="0"
       unit="px"
       method="auto"
       mode="F"
       chamfer_steps="1"
       flexible="false"
       use_knot_distance="true"
       apply_no_radius="true"
       apply_with_radius="true"
       only_selected="false"
       hide_knots="false" />
    <inkscape:path-effect
       effect="fillet_chamfer"
       id="path-effect23"
       is_visible="true"
       lpeversion="1"
       nodesatellites_param="F,0,0,1,0,0,0,1 @ F,0,0,1,0,0,0,1 @ F,0,0,1,0,0,0,1 @ F,0,0,1,0,0,0,1 @ F,0,0,1,0,0,0,1 @ F,0,0,1,0,0,0,1 @ F,0,0,1,0,0,0,1 @ F,0,0,1,0,0,0,1"
       radius="0"
       unit="px"
       method="auto"
       mode="F"
       chamfer_steps="1"
       flexible="false"
       use_knot_distance="true"
       apply_no_radius="true"
       apply_with_radius="true"
       only_selected="false"
       hide_knots="false" />
    <inkscape:path-effect
       effect="fillet_chamfer"
       id="path-effect21"
       is_visible="true"
       lpeversion="1"
       nodesatellites_param="F,0,0,1,0,0,0,1 @ F,0,0,1,0,0,0,1 @ F,0,0,1,0,0,0,1 @ F,0,0,1,0,0,0,1 @ F,0,0,1,0,0,0,1 @ F,0,0,1,0,0,0,1 @ F,0,0,1,0,0,0,1 @ F,0,0,1,0,0,0,1"
       radius="0"
       unit="px"
       method="auto"
       mode="F"
       chamfer_steps="1"
       flexible="false"
       use_knot_distance="true"
       apply_no_radius="true"
       apply_with_radius="true"
       only_selected="false"
       hide_knots="false" />
    <inkscape:path-effect
       effect="fillet_chamfer"
       id="path-effect19"
       is_visible="true"
       lpeversion="1"
       nodesatellites_param="F,0,0,1,0,0,0,1 @ F,0,0,1,0,0,0,1 @ F,0,0,1,0,0,0,1 @ F,0,0,1,0,0,0,1 @ F,0,0,1,0,0,0,1 @ F,0,0,1,0,0,0,1 @ F,0,0,1,0,0,0,1 @ F,0,0,1,0,0,0,1"
       radius="0"
       unit="px"
       method="auto"
       mode="F"
       chamfer_steps="1"
       flexible="false"
       use_knot_distance="true"
       apply_no_radius="true"
       apply_with_radius="true"
       only_selected="false"
       hide_knots="false" />
    <inkscape:path-effect
       effect="fillet_chamfer"
       id="path-effect17"
       is_visible="true"
       lpeversion="1"
       nodesatellites_param="F,0,0,1,0,0,0,1 @ F,0,0,1,0,0,0,1 @ F,0,0,1,0,0,0,1 @ F,0,0,1,0,0,0,1 @ F,0,0,1,0,0,0,1 @ F,0,0,1,0,0,0,1 @ F,0,0,1,0,0,0,1 @ F,0,0,1,0,0,0,1"
       radius="0"
       unit="px"
       method="auto"
       mode="F"
       chamfer_steps="1"
       flexible="false"
       use_knot_distance="true"
       apply_no_radius="true"
       apply_with_radius="true"
       only_selected="false"
       hide_knots="false" />
    <inkscape:path-effect
       effect="fillet_chamfer"
       id="path-effect15"
       is_visible="true"
       lpeversion="1"
       nodesatellites_param="F,0,0,1,0,0,0,1 @ F,0,0,1,0,0,0,1 @ F,0,0,1,0,0,0,1 @ F,0,0,1,0,0,0,1 @ F,0,0,1,0,0,0,1 @ F,0,0,1,0,0,0,1 @ F,0,0,1,0,0,0,1 @ F,0,0,1,0,0,0,1"
       radius="0"
       unit="px"
       method="auto"
       mode="F"
       chamfer_steps="1"
       flexible="false"
       use_knot_distance="true"
       apply_no_radius="true"
       apply_with_radius="true"
       only_selected="false"
       hide_knots="false" />
    <inkscape:path-effect
       effect="fillet_chamfer"
       id="path-effect13"
       is_visible="true"
       lpeversion="1"
       nodesatellites_param="F,0,0,1,0,0,0,1 @ F,0,0,1,0,0,0,1 @ F,0,0,1,0,0,0,1 @ F,0,0,1,0,0,0,1 @ F,0,0,1,0,0,0,1 @ F,0,0,1,0,0,0,1 @ F,0,0,1,0,0,0,1 @ F,0,0,1,0,0,0,1"
       radius="0"
       unit="px"
       method="auto"
       mode="F"
       chamfer_steps="1"
       flexible="false"
       use_knot_distance="true"
       apply_no_radius="true"
       apply_with_radius="true"
       only_selected="false"
       hide_knots="false" />
    <inkscape:path-effect
       effect="fillet_chamfer"
       id="path-effect1"
       is_visible="true"
       lpeversion="1"
       nodesatellites_param="F,0,0,1,0,0,0,1 @ F,0,0,1,0,0,0,1 @ F,0,0,1,0,0,0,1 @ F,0,0,1,0,0,0,1 @ F,0,0,1,0,0,0,1 @ F,0,0,1,0,0,0,1 @ F,0,0,1,0,0,0,1 @ F,0,0,1,0,0,0,1"
       radius="0"
       unit="px"
       method="auto"
       mode="F"
       chamfer_steps="1"
       flexible="false"
       use_knot_distance="true"
       apply_no_radius="true"
       apply_with_radius="true"
       only_selected="false"
       hide_knots="false" />
    <linearGradient
       inkscape:collect="always"
       xlink:href="#linearGradient112"
       id="linearGradient104"
       x1="8.8850889"
       y1="-2.9179068"
       x2="20.449215"
       y2="-2.9179068"
       gradientUnits="userSpaceOnUse" />
    <linearGradient
       inkscape:collect="always"
       xlink:href="#linearGradient112"
       id="linearGradient105"
       x1="8.8850889"
       y1="-2.9179068"
       x2="20.449215"
       y2="-2.9179068"
       gradientUnits="userSpaceOnUse" />
    <linearGradient
       inkscape:collect="always"
       xlink:href="#linearGradient112"
       id="linearGradient106"
       x1="8.8850889"
       y1="-2.9179068"
       x2="20.449215"
       y2="-2.9179068"
       gradientUnits="userSpaceOnUse" />
    <linearGradient
       inkscape:collect="always"
       xlink:href="#linearGradient112"
       id="linearGradient107"
       x1="8.8850889"
       y1="-2.9179068"
       x2="20.449215"
       y2="-2.9179068"
       gradientUnits="userSpaceOnUse" />
    <linearGradient
       inkscape:collect="always"
       xlink:href="#linearGradient112"
       id="linearGradient108"
       x1="8.8850889"
       y1="-2.9179068"
       x2="20.449215"
       y2="-2.9179068"
       gradientUnits="userSpaceOnUse" />
    <linearGradient
       inkscape:collect="always"
       xlink:href="#linearGradient112"
       id="linearGradient109"
       x1="8.8850889"
       y1="-2.9179068"
       x2="20.449215"
       y2="-2.9179068"
       gradientUnits="userSpaceOnUse" />
    <linearGradient
       inkscape:collect="always"
       xlink:href="#linearGradient116"
       id="linearGradient110"
       x1="8.8850889"
       y1="-2.9179068"
       x2="20.449215"
       y2="-2.9179068"
       gradientUnits="userSpaceOnUse" />
    <linearGradient
       inkscape:collect="always"
       xlink:href="#linearGradient112"
       id="linearGradient111"
       x1="8.8850889"
       y1="-2.9179068"
       x2="20.449215"
       y2="-2.9179068"
       gradientUnits="userSpaceOnUse" />
    <linearGradient
       inkscape:collect="always"
       xlink:href="#linearGradient113"
       id="linearGradient114"
       x1="14.040219"
       y1="-13.222568"
       x2="14.579098"
       y2="7.1195073"
       gradientUnits="userSpaceOnUse" />
  </defs>
  <g
     inkscape:label="Layer 1"
     inkscape:groupmode="layer"
     id="layer1">
    <g
       id="g1"
       transform="translate(4.6075943e-8,-2.0376885)">
      <g
         id="g47"
         transform="matrix(0.94441437,0,0,0.94364767,0.73535769,2.5746559)"
         style="stroke-width:1.05929">
        <path
           style="fill:#660000;fill-opacity:1;stroke:#000000;stroke-width:0.541821;stroke-dasharray:none;stroke-opacity:1"
           id="path27"
           width="11.438308"
           height="20.527658"
           x="8.947998"
           y="-13.181736"
           transform="matrix(0.71308619,0.71024051,-0.97326266,0.53155453,-0.06967318,4.805843)"
           sodipodi:type="rect"
           d="m 9.7834207,-13.181736 h 9.7674623 c 0.462824,0 0.835423,0.338082 0.835423,0.75803 V 6.5878921 c 0,0.4199488 -0.372599,0.7580304 -0.835423,0.7580304 H 9.7834207 c -0.4628241,0 -0.8354227,-0.3380816 -0.8354227,-0.7580304 V -12.423706 c 0,-0.419948 0.3725986,-0.75803 0.8354227,-0.75803 z"
           inkscape:path-effect="#path-effect29"
           rx="0.83542269"
           ry="0.75803035"
           inkscape:label="path27" />
        <path
           style="fill:url(#linearGradient104);fill-opacity:1;stroke:#4d4d4d;stroke-width:0.133279;stroke-dasharray:none;stroke-opacity:1"
           id="path30"
           width="11.438308"
           height="20.527658"
           x="8.947998"
           y="-13.181736"
           transform="matrix(0.72472686,0.7218413,-0.98915054,0.54023673,-0.2867752,4.1181278)"
           sodipodi:type="rect"
           d="m 9.7699983,-13.181736 h 9.7943077 c 0.455388,0 0.822,0.332651 0.822,0.745853 V 6.6000693 c 0,0.4132026 -0.366612,0.7458532 -0.822,0.7458532 H 9.7699983 c -0.4553881,0 -0.8220003,-0.3326506 -0.8220003,-0.7458532 V -12.435883 c 0,-0.413202 0.3666122,-0.745853 0.8220003,-0.745853 z"
           inkscape:path-effect="#path-effect33"
           rx="0.82200027"
           ry="0.74585319" />
        <path
           style="fill:url(#linearGradient105);fill-opacity:1;stroke:#4d4d4d;stroke-width:0.133279;stroke-dasharray:none;stroke-opacity:1"
           id="path25"
           width="11.438308"
           height="20.527658"
           x="8.947998"
           y="-13.181736"
           transform="matrix(0.72472686,0.7218413,-0.98915054,0.54023673,-0.2867752,3.5889611)"
           sodipodi:type="rect"
           d="m 9.7699983,-13.181736 h 9.7943077 c 0.455388,0 0.822,0.332651 0.822,0.745853 V 6.6000693 c 0,0.4132026 -0.366612,0.7458532 -0.822,0.7458532 H 9.7699983 c -0.4553881,0 -0.8220003,-0.3326506 -0.8220003,-0.7458532 V -12.435883 c 0,-0.413202 0.3666122,-0.745853 0.8220003,-0.745853 z"
           inkscape:path-effect="#path-effect27"
           rx="0.82200027"
           ry="0.74585319" />
        <path
           style="fill:url(#linearGradient106);fill-opacity:1;stroke:#4d4d4d;stroke-width:0.133279;stroke-dasharray:none;stroke-opacity:1"
           id="path23"
           width="11.438308"
           height="20.527658"
           x="8.947998"
           y="-13.181736"
           transform="matrix(0.72472686,0.7218413,-0.98915054,0.54023673,-0.2867752,3.0597944)"
           sodipodi:type="rect"
           d="m 9.7699983,-13.181736 h 9.7943077 c 0.455388,0 0.822,0.332651 0.822,0.745853 V 6.6000693 c 0,0.4132026 -0.366612,0.7458532 -0.822,0.7458532 H 9.7699983 c -0.4553881,0 -0.8220003,-0.3326506 -0.8220003,-0.7458532 V -12.435883 c 0,-0.413202 0.3666122,-0.745853 0.8220003,-0.745853 z"
           inkscape:path-effect="#path-effect25"
           rx="0.82200027"
           ry="0.74585319" />
        <path
           style="fill:url(#linearGradient107);fill-opacity:1;stroke:#4d4d4d;stroke-width:0.133279;stroke-dasharray:none;stroke-opacity:1"
           id="path21"
           width="11.438308"
           height="20.527658"
           x="8.947998"
           y="-13.181736"
           transform="matrix(0.72472686,0.7218413,-0.98915054,0.54023673,-0.2867752,2.5306277)"
           sodipodi:type="rect"
           d="m 9.7699983,-13.181736 h 9.7943077 c 0.455388,0 0.822,0.332651 0.822,0.745853 V 6.6000693 c 0,0.4132026 -0.366612,0.7458532 -0.822,0.7458532 H 9.7699983 c -0.4553881,0 -0.8220003,-0.3326506 -0.8220003,-0.7458532 V -12.435883 c 0,-0.413202 0.3666122,-0.745853 0.8220003,-0.745853 z"
           inkscape:path-effect="#path-effect23"
           rx="0.82200027"
           ry="0.74585319" />
        <path
           style="fill:url(#linearGradient108);fill-opacity:1;stroke:#4d4d4d;stroke-width:0.133279;stroke-dasharray:none;stroke-opacity:1"
           id="path19"
           width="11.438308"
           height="20.527658"
           x="8.947998"
           y="-13.181736"
           transform="matrix(0.72472686,0.7218413,-0.98915054,0.54023673,-0.2867752,2.001461)"
           sodipodi:type="rect"
           d="m 9.7699983,-13.181736 h 9.7943077 c 0.455388,0 0.822,0.332651 0.822,0.745853 V 6.6000693 c 0,0.4132026 -0.366612,0.7458532 -0.822,0.7458532 H 9.7699983 c -0.4553881,0 -0.8220003,-0.3326506 -0.8220003,-0.7458532 V -12.435883 c 0,-0.413202 0.3666122,-0.745853 0.8220003,-0.745853 z"
           inkscape:path-effect="#path-effect21"
           rx="0.82200027"
           ry="0.74585319" />
        <path
           style="fill:url(#linearGradient109);fill-opacity:1;stroke:#4d4d4d;stroke-width:0.133279;stroke-dasharray:none;stroke-opacity:1"
           id="path17"
           width="11.438308"
           height="20.527658"
           x="8.947998"
           y="-13.181736"
           transform="matrix(0.72472686,0.7218413,-0.98915054,0.54023673,-0.2867752,1.4722943)"
           sodipodi:type="rect"
           d="m 9.7699983,-13.181736 h 9.7943077 c 0.455388,0 0.822,0.332651 0.822,0.745853 V 6.6000693 c 0,0.4132026 -0.366612,0.7458532 -0.822,0.7458532 H 9.7699983 c -0.4553881,0 -0.8220003,-0.3326506 -0.8220003,-0.7458532 V -12.435883 c 0,-0.413202 0.3666122,-0.745853 0.8220003,-0.745853 z"
           inkscape:path-effect="#path-effect19"
           rx="0.82200027"
           ry="0.74585319" />
        <path
           style="fill:url(#linearGradient110);fill-opacity:1;stroke:#4d4d4d;stroke-width:0.133279;stroke-dasharray:none;stroke-opacity:1"
           id="path15"
           width="11.438308"
           height="20.527658"
           x="8.947998"
           y="-13.181736"
           transform="matrix(0.72472686,0.7218413,-0.98915054,0.54023673,-0.2867752,0.94312765)"
           sodipodi:type="rect"
           d="m 9.7699983,-13.181736 h 9.7943077 c 0.455388,0 0.822,0.332651 0.822,0.745853 V 6.6000693 c 0,0.4132026 -0.366612,0.7458532 -0.822,0.7458532 H 9.7699983 c -0.4553881,0 -0.8220003,-0.3326506 -0.8220003,-0.7458532 V -12.435883 c 0,-0.413202 0.3666122,-0.745853 0.8220003,-0.745853 z"
           inkscape:path-effect="#path-effect17"
           rx="0.82200027"
           ry="0.74585319" />
        <path
           style="fill:url(#linearGradient111);fill-opacity:1;stroke:#4d4d4d;stroke-width:0.133279;stroke-dasharray:none;stroke-opacity:1"
           id="path13"
           width="11.438308"
           height="20.527658"
           x="8.947998"
           y="-13.181736"
           transform="matrix(0.72472686,0.7218413,-0.98915054,0.54023673,-0.2867752,0.41396099)"
           sodipodi:type="rect"
           d="m 9.7699983,-13.181736 h 9.7943077 c 0.455388,0 0.822,0.332651 0.822,0.745853 V 6.6000693 c 0,0.4132026 -0.366612,0.7458532 -0.822,0.7458532 H 9.7699983 c -0.4553881,0 -0.8220003,-0.3326506 -0.8220003,-0.7458532 V -12.435883 c 0,-0.413202 0.3666122,-0.745853 0.8220003,-0.745853 z"
           inkscape:path-effect="#path-effect15"
           rx="0.82200027"
           ry="0.74585319" />
        <path
           style="fill:url(#linearGradient114);fill-opacity:1;stroke:#000000;stroke-width:0.541821;stroke-dasharray:none;stroke-opacity:1"
           id="rect1"
           width="11.438308"
           height="20.527658"
           x="8.947998"
           y="-13.181736"
           transform="matrix(0.71308619,0.71024051,-0.97326266,0.53155453,-0.06967318,0.04334302)"
           sodipodi:type="rect"
           d="m 9.7834207,-13.181736 h 9.7674623 c 0.462824,0 0.835423,0.338082 0.835423,0.75803 V 6.5878921 c 0,0.4199488 -0.372599,0.7580304 -0.835423,0.7580304 H 9.7834207 c -0.4628241,0 -0.8354227,-0.3380816 -0.8354227,-0.7580304 V -12.423706 c 0,-0.419948 0.3725986,-0.75803 0.8354227,-0.75803 z"
           inkscape:path-effect="#path-effect1"
           rx="0.83542269"
           ry="0.75803035" />
      </g>
      <path
         style="font-weight:bold;font-size:2.11667px;font-family:'Times New Roman';-inkscape-font-specification:'Times New Roman,  Bold';fill:#ff8000;stroke-width:0.132292"
         d="m 15.071485,-7.1609966 q 0.04754,0.1374595 0.147795,0.206706 0.100252,0.069247 0.251148,0.069247 0.04134,0 0.08785,-0.00827 v 0.063045 q -0.156063,0.039274 -0.279053,0.039274 -0.192237,0 -0.344166,-0.094051 -0.150895,-0.094051 -0.227377,-0.2759526 -0.254248,-0.053744 -0.410311,-0.2490808 -0.15503,-0.1953372 -0.15503,-0.4661221 0,-0.3141932 0.210841,-0.5219328 0.21084,-0.2087731 0.535368,-0.2087731 0.323495,0 0.533302,0.2087731 0.209806,0.2087731 0.209806,0.5219328 0,0.272852 -0.164331,0.4743903 -0.164331,0.2015384 -0.395842,0.2408126 z m -0.183968,-1.3673605 q -0.186036,0 -0.287322,0.1932702 -0.08475,0.1622642 -0.08475,0.461988 0,0.3596685 0.127124,0.5333016 0.08888,0.120923 0.244947,0.120923 0.157096,0 0.244946,-0.118856 0.127125,-0.1705325 0.127125,-0.512631 0,-0.3369308 -0.07958,-0.4878262 -0.09922,-0.1901696 -0.292489,-0.1901696 z m 0.868165,-0.046509 h 0.723471 v 0.038241 h -0.03617 q -0.08165,0 -0.112655,0.01757 -0.02997,0.016536 -0.04341,0.046509 -0.0124,0.029972 -0.0124,0.1498619 v 0.6862641 q 0,0.1881025 0.02791,0.2490808 0.02894,0.060978 0.09405,0.1012859 0.06511,0.040308 0.164331,0.040308 0.113689,0 0.19327,-0.050643 0.08062,-0.051677 0.11989,-0.1415936 0.04031,-0.089917 0.04031,-0.3131597 v -0.5715422 q 0,-0.094051 -0.01964,-0.1343589 -0.01964,-0.040308 -0.04961,-0.055811 -0.04651,-0.023771 -0.131258,-0.023771 v -0.038241 h 0.484725 v 0.038241 h -0.02894 q -0.05891,0 -0.09818,0.023771 -0.03927,0.023771 -0.05684,0.071314 -0.01344,0.033073 -0.01344,0.118856 v 0.5322681 q 0,0.2470137 -0.03307,0.3565679 -0.03204,0.1095542 -0.15813,0.2015384 -0.126091,0.091984 -0.344166,0.091984 -0.181901,0 -0.28112,-0.048576 -0.135392,-0.066146 -0.191203,-0.169499 -0.05581,-0.103353 -0.05581,-0.2780196 v -0.6862641 q 0,-0.120923 -0.01343,-0.1498619 -0.01344,-0.029972 -0.04651,-0.047542 -0.03307,-0.01757 -0.121957,-0.016537 z m 2.055692,0.080615 v 0.5705087 h 0.02791 q 0.133326,0 0.19327,-0.083716 0.05994,-0.083716 0.07648,-0.2470137 h 0.03927 v 0.7338065 h -0.03927 q -0.0124,-0.1198895 -0.05271,-0.1963708 -0.03927,-0.076481 -0.09198,-0.1023195 -0.05271,-0.026872 -0.152962,-0.026872 v 0.3948085 q 0,0.1157554 0.0093,0.1415936 0.01034,0.025838 0.03721,0.042375 0.02687,0.016536 0.08682,0.016536 h 0.08372 q 0.196371,0 0.314193,-0.090951 0.118856,-0.090951 0.170533,-0.2769861 h 0.03824 l -0.06304,0.4454515 h -1.211297 v -0.038241 h 0.04651 q 0.06098,0 0.09819,-0.021704 0.02687,-0.014469 0.04134,-0.049609 0.01137,-0.024805 0.01137,-0.1302248 v -0.9219089 q 0,-0.095085 -0.0052,-0.116789 -0.01034,-0.036174 -0.03824,-0.055811 -0.03927,-0.028939 -0.107487,-0.028939 h -0.04651 v -0.038241 h 1.173057 v 0.4144457 h -0.03927 q -0.02997,-0.151929 -0.08475,-0.2180749 -0.05374,-0.066146 -0.152963,-0.097152 -0.05788,-0.018604 -0.217041,-0.018604 z m 1.829348,-0.1126548 0.01137,0.4671557 h -0.04237 q -0.02997,-0.1757002 -0.147794,-0.2821538 -0.116789,-0.1074871 -0.253215,-0.1074871 -0.10542,0 -0.167432,0.056844 -0.06098,0.055811 -0.06098,0.1291913 0,0.046509 0.0217,0.082682 0.02997,0.048576 0.09612,0.096118 0.04858,0.034107 0.224276,0.1209231 0.24598,0.120923 0.331763,0.2284102 0.08475,0.1074871 0.08475,0.2459802 0,0.1757001 -0.13746,0.3028243 -0.136426,0.1260907 -0.347266,0.1260907 -0.06615,0 -0.125057,-0.013436 -0.05891,-0.013436 -0.147795,-0.050643 -0.04961,-0.020671 -0.08165,-0.020671 -0.02687,0 -0.05684,0.020671 -0.02997,0.020671 -0.04858,0.063045 H 18.75602 V -7.670527 h 0.03824 q 0.04547,0.2232425 0.174667,0.341065 0.130224,0.1167889 0.280086,0.1167889 0.115756,0 0.183969,-0.063045 0.06925,-0.063045 0.06925,-0.1467613 0,-0.049609 -0.02687,-0.096118 -0.02584,-0.046509 -0.07958,-0.08785 -0.05374,-0.042375 -0.19017,-0.1095542 -0.191203,-0.094051 -0.274919,-0.1601972 -0.08372,-0.066146 -0.129191,-0.1477948 -0.04444,-0.081649 -0.04444,-0.1798343 0,-0.1674319 0.12299,-0.2852543 0.12299,-0.1178225 0.310059,-0.1178225 0.06821,0 0.132292,0.016537 0.04858,0.012402 0.117822,0.046509 0.07028,0.033073 0.09819,0.033073 0.02687,0 0.04237,-0.016537 0.0155,-0.016536 0.02894,-0.079582 z m 1.518256,0.032039 v 0.3793056 h -0.03721 q -0.03307,-0.1312583 -0.07338,-0.1881025 -0.04031,-0.057878 -0.110587,-0.091984 -0.03927,-0.018604 -0.13746,-0.018604 h -0.104386 v 1.0810726 q 0,0.1074872 0.01137,0.1343589 0.0124,0.026872 0.04651,0.047542 0.03514,0.019637 0.09508,0.019637 h 0.04651 v 0.038241 h -0.733807 v -0.038241 h 0.04651 q 0.06098,0 0.09819,-0.021704 0.02687,-0.014469 0.04237,-0.049609 0.01137,-0.024805 0.01137,-0.1302248 v -1.0810726 h -0.101286 q -0.141593,0 -0.205672,0.059945 -0.08992,0.083716 -0.113689,0.2387454 h -0.03927 V -8.574866 Z m 1.070737,-0.032039 0.01137,0.4671557 h -0.04237 q -0.02997,-0.1757002 -0.147794,-0.2821538 -0.116789,-0.1074871 -0.253215,-0.1074871 -0.10542,0 -0.167432,0.056844 -0.06098,0.055811 -0.06098,0.1291913 0,0.046509 0.0217,0.082682 0.02997,0.048576 0.09612,0.096118 0.04858,0.034107 0.224276,0.1209231 0.24598,0.120923 0.331763,0.2284102 0.08475,0.1074871 0.08475,0.2459802 0,0.1757001 -0.13746,0.3028243 -0.136426,0.1260907 -0.347266,0.1260907 -0.06615,0 -0.125057,-0.013436 -0.05891,-0.013436 -0.147795,-0.050643 -0.04961,-0.020671 -0.08165,-0.020671 -0.02687,0 -0.05684,0.020671 -0.02997,0.020671 -0.04858,0.063045 h -0.03824 V -7.670527 h 0.03824 q 0.04547,0.2232425 0.174667,0.341065 0.130225,0.1167889 0.280086,0.1167889 0.115756,0 0.183969,-0.063045 0.06925,-0.063045 0.06925,-0.1467613 0,-0.049609 -0.02687,-0.096118 -0.02584,-0.046509 -0.07958,-0.08785 -0.05374,-0.042375 -0.19017,-0.1095542 -0.191203,-0.094051 -0.274919,-0.1601972 -0.08372,-0.066146 -0.129191,-0.1477948 -0.04444,-0.081649 -0.04444,-0.1798343 0,-0.1674319 0.12299,-0.2852543 0.12299,-0.1178225 0.310059,-0.1178225 0.06821,0 0.132292,0.016537 0.04858,0.012402 0.117823,0.046509 0.07028,0.033073 0.09819,0.033073 0.02687,0 0.04237,-0.016537 0.0155,-0.016536 0.02894,-0.079582 z"
         id="text116"
         transform="rotate(46.694021)"
         aria-label="QUESTS" />
    </g>
  </g>
</svg>
